0
SECTION
2
HEADER
9
$INSUNITS
70
4
9
$ACADVER
1
AC1014
9
$HANDSEED
5
FFFF
0
ENDSEC
0
SECTION
2
TABLES
0
TABLE
2
VPORT
5
8
100
AcDbSymbolTable
0
ENDTAB
0
TABLE
2
LTYPE
5
5
100
AcDbSymbolTable
0
LTYPE
5
14
100
AcDbSymbolTableRecord
100
AcDbLinetypeTableRecord
2
BYBLOCK
70
0
0
LTYPE
5
15
100
AcDbSymbolTableRecord
100
AcDbLinetypeTableRecord
2
BYLAYER
70
0
0
LTYPE
5
16
100
AcDbSymbolTableRecord
100
AcDbLinetypeTableRecord
2
DASHED
70
0
3
Dashed __ __ __ __ __ __ __ __ __ __ __ __ __ _
72
65
73
2
40
0.75
49
0.5
74
0
49
-0.25
74
0
0
ENDTAB
0
TABLE
2
LAYER
5
2
100
AcDbSymbolTable
70
2
0
LAYER
5
50
100
AcDbSymbolTableRecord
100
AcDbLayerTableRecord
2
0
70
0
62
7
6
CONTINUOUS
0
ENDTAB
0
TABLE
2
STYLE
5
3
100
AcDbSymbolTable
70
1
0
STYLE
5
11
100
AcDbSymbolTableRecord
100
AcDbTextStyleTableRecord
2
STANDARD
70
0
0
ENDTAB
0
TABLE
2
VIEW
5
6
100
AcDbSymbolTable
70
0
0
ENDTAB
0
TABLE
2
UCS
5
7
100
AcDbSymbolTable
70
0
0
ENDTAB
0
TABLE
2
APPID
5
9
100
AcDbSymbolTable
70
2
0
APPID
5
12
100
AcDbSymbolTableRecord
100
AcDbRegAppTableRecord
2
ACAD
70
0
0
ENDTAB
0
TABLE
2
DIMSTYLE
5
A
100
AcDbSymbolTable
70
1
0
ENDTAB
0
TABLE
2
BLOCK_RECORD
5
1
100
AcDbSymbolTable
70
1
0
BLOCK_RECORD
5
1F
100
AcDbSymbolTableRecord
100
AcDbBlockTableRecord
2
*MODEL_SPACE
0
BLOCK_RECORD
5
1B
100
AcDbSymbolTableRecord
100
AcDbBlockTableRecord
2
*PAPER_SPACE
0
ENDTAB
0
ENDSEC
0
SECTION
2
BLOCKS
0
BLOCK
5
20
100
AcDbEntity
100
AcDbBlockBegin
2
*MODEL_SPACE
0
ENDBLK
5
21
100
AcDbEntity
100
AcDbBlockEnd
0
BLOCK
5
1C
100
AcDbEntity
100
AcDbBlockBegin
2
*PAPER_SPACE
0
ENDBLK
5
1D
100
AcDbEntity
100
AcDbBlockEnd
0
ENDSEC
0
SECTION
2
ENTITIES
0
POINT
5
100
100
AcDbEntity
8
0
100
AcDbPoint
10
-3.3013293606205396
20
53.4139771708059
30
0
0
LINE
5
101
100
AcDbEntity
8
0
100
AcDbLine
10
-3.3013293606205396
20
53.4139771708059
30
0
11
-3.3013293606205396
21
-3.2416093419704497
31
0
6
DASHED
0
LINE
5
102
100
AcDbEntity
8
0
100
AcDbLine
10
-3.3013293606205396
20
0.78251021356036121
30
0
11
-7.3775847617523427
21
0.78251021356036121
31
0
6
DASHED
0
LWPOLYLINE
5
103
100
AcDbEntity
8
0
100
AcDbPolyline
90
4
70
1
43
0.0
10
-7.3775847617523427
20
0.78251021356036121
10
-7.3775847617523302
20
53.413977174814192
42
-0.99999999999999989
10
0.77492604051125014
20
53.413977166797615
10
0.77492604051125791
20
0.78251021356036121
42
-0.99999999999999989
0
LINE
5
104
100
AcDbEntity
8
0
100
AcDbLine
10
-3.3013293606205396
20
-3.2416093419704497
30
0
11
-3.3013293606205396
21
-14.738740018740199
31
0
6
DASHED
0
LINE
5
105
100
AcDbEntity
8
0
100
AcDbLine
10
-11.293844293588563
20
57.604104258792368
30
0
11
-11.293844293588563
21
-18.369412864035908
31
0
6
DASHED
0
LINE
5
106
100
AcDbEntity
8
0
100
AcDbLine
10
-13.26315742040093
20
57.604104258792368
30
0
11
-13.26315742040093
21
-2.6799757995616602
31
0
0
LINE
5
107
100
AcDbEntity
8
0
100
AcDbLine
10
-9.3245311667762074
20
57.604104258792368
30
0
11
-9.3245311667762074
21
-2.8442881401572127
31
0
0
LINE
5
108
100
AcDbEntity
8
0
100
AcDbLine
10
-3.3013293606205396
20
-9.197965761440468
30
0
11
-6.74516745852213
21
-9.197965761440468
31
0
0
LINE
5
109
100
AcDbEntity
8
0
100
AcDbLine
10
-3.3013293606205396
20
-5.264736757788933
30
0
11
-6.9040825491444879
21
-5.2647367577889357
31
0
0
ARC
5
110
100
AcDbEntity
8
0
100
AcDbCircle
10
-6.9040825491444879
20
-2.8442881401572171
30
0
40
2.4204486176317181
210
0
220
0
230
1
100
AcDbArc
50
180
51
270
0
ARC
5
111
100
AcDbEntity
8
0
100
AcDbCircle
10
-6.74516745852213
20
-2.6799757995616758
30
0
40
6.5179899618787926
210
0
220
0
230
1
100
AcDbArc
50
180
51
270
0
LINE
5
112
100
AcDbEntity
8
0
100
AcDbLine
10
2.7218724455351273
20
57.604104258792368
30
0
11
2.7218724455351273
21
-2.8442881401572127
31
0
0
ARC
5
113
100
AcDbEntity
8
0
100
AcDbCircle
10
0.30142382790340871
20
-2.8442881401572198
30
0
40
2.4204486176317181
210
-0
220
0
230
1
100
AcDbArc
50
-90
51
0
0
LINE
5
114
100
AcDbEntity
8
0
100
AcDbLine
10
-3.3013293606205396
20
-5.2647367577889304
30
0
11
0.30142382790340871
21
-5.2647367577889366
31
0
0
LINE
5
115
100
AcDbEntity
8
0
100
AcDbLine
10
6.6604986991598469
20
57.604104258792368
30
0
11
6.6604986991598469
21
-2.6799757995616602
31
0
0
ARC
5
116
100
AcDbEntity
8
0
100
AcDbCircle
10
0.14250873728105073
20
-2.6799757995616735
30
0
40
6.5179899618787998
210
0
220
0
230
1
100
AcDbArc
50
-90.000000000000057
51
0
0
LINE
5
117
100
AcDbEntity
8
0
100
AcDbLine
10
-3.3013293606205396
20
-9.1979657614404733
30
0
11
0.14250873728104629
21
-9.1979657614404733
31
0
0
LINE
5
118
100
AcDbEntity
8
0
100
AcDbLine
10
-14.903396928628649
20
59.084945902797955
30
0
11
-14.903396928628649
21
-5.4200128209082585
31
0
0
LINE
5
119
100
AcDbEntity
8
0
100
AcDbLine
10
-14.903396928628649
20
-5.4200128209082585
30
0
11
-3.3013293606205396
21
-16.571485507534295
31
0
0
LINE
5
120
100
AcDbEntity
8
0
100
AcDbLine
10
8.3007382073875711
20
59.084945902797955
30
0
11
8.3007382073875711
21
-5.4200128209082585
31
0
0
LINE
5
121
100
AcDbEntity
8
0
100
AcDbLine
10
8.3007382073875711
20
-5.4200128209082585
30
0
11
-3.3013293606205396
21
-16.571485507534295
31
0
0
LINE
5
122
100
AcDbEntity
8
0
100
AcDbLine
10
-14.903396928628649
20
59.084945902797955
30
0
11
-14.903396928628649
21
63.925838296000194
31
0
0
LINE
5
123
100
AcDbEntity
8
0
100
AcDbLine
10
-14.903396928628649
20
63.925838296000194
30
0
11
8.3007382073875711
21
63.925838296000194
31
0
0
LINE
5
124
100
AcDbEntity
8
0
100
AcDbLine
10
8.3007382073875711
20
63.925838296000194
30
0
11
8.3007382073875711
21
59.084945902797955
31
0
0
ARC
5
125
100
AcDbEntity
8
0
100
AcDbCircle
10
-11.293844293588563
20
57.604104258792368
30
0
40
1.9693131268123587
210
0
220
0
230
1
100
AcDbArc
50
0
51
180
0
ARC
5
126
100
AcDbEntity
8
0
100
AcDbCircle
10
4.6911855723474849
20
57.604104258792368
30
0
40
1.9693131268123587
210
0
220
0
230
1
100
AcDbArc
50
0
51
180
0
ENDSEC
0
SECTION
2
OBJECTS
0
DICTIONARY
5
C
100
AcDbDictionary
3
ACAD_GROUP
350
D
3
ACAD_MLINESTYLE
350
17
0
DICTIONARY
5
D
100
AcDbDictionary
0
DICTIONARY
5
1A
330
C
100
AcDbDictionary
0
DICTIONARY
5
17
100
AcDbDictionary
0
ENDSEC
0
EOF
